<svg width="109" height="24" viewBox="0 0 109 24" fill="none" xmlns="http://www.w3.org/2000/svg">
<path d="M35.709 19H33.0547V6.31738H35.709V19ZM37.6338 19V9.32324H40.1123V11.0547H40.165C40.7188 9.83301 41.791 9.18262 43.2764 9.18262C45.4209 9.18262 46.7217 10.5361 46.7217 12.7949V19H44.1553V13.3311C44.1553 12.0479 43.4697 11.3184 42.2568 11.3184C41.0264 11.3184 40.2002 12.1973 40.2002 13.4805V19H37.6338ZM48.6113 6.31738H53.9023C56.5039 6.31738 58.2969 8.04883 58.2969 10.6592C58.2969 13.2607 56.4424 15.001 53.7705 15.001H51.2656V19H48.6113V6.31738ZM51.2656 8.41797V12.9268H53.1904C54.7109 12.9268 55.5986 12.1182 55.5986 10.668C55.5986 9.22656 54.7197 8.41797 53.1992 8.41797H51.2656ZM59.7471 19V5.71094H62.3135V19H59.7471ZM67.8242 17.2422C69.0107 17.2422 69.96 16.5039 69.96 15.4492V14.7373L67.9297 14.8779C66.8574 14.9482 66.2861 15.3701 66.2861 16.082C66.2861 16.7939 66.8926 17.2422 67.8242 17.2422ZM66.9893 19.1143C65.126 19.1143 63.7285 17.9453 63.7285 16.2139C63.7285 14.4561 65.0732 13.4629 67.543 13.3135L69.96 13.1641V12.5225C69.96 11.5908 69.3184 11.0811 68.2637 11.0811C67.332 11.0811 66.6816 11.5732 66.5586 12.2764H64.2119C64.2822 10.4307 65.9521 9.15625 68.3691 9.15625C70.8564 9.15625 72.4824 10.4307 72.4824 12.3643V19H70.0039V17.5059H69.9512C69.4238 18.5166 68.2285 19.1143 66.9893 19.1143ZM75.3916 22.5332C75.2949 22.5332 74.5127 22.5156 74.416 22.498V20.5117C74.5039 20.5293 74.8906 20.5381 74.9961 20.5381C75.9541 20.5381 76.5078 20.2041 76.71 19.4307L76.7979 19.0615L73.4053 9.32324H76.2178L78.3096 16.917H78.3623L80.4629 9.32324H83.1699L79.8213 19.1934C78.9951 21.6631 77.8086 22.5332 75.3916 22.5332ZM84.2158 19V5.71094H86.7822V19H84.2158ZM88.6367 19V9.32324H91.2031V19H88.6367ZM89.9199 8.26855C89.1641 8.26855 88.54 7.68848 88.54 6.92383C88.54 6.15918 89.1641 5.58789 89.9199 5.58789C90.6846 5.58789 91.3086 6.15918 91.3086 6.92383C91.3086 7.68848 90.6846 8.26855 89.9199 8.26855ZM92.8203 12.1709C92.8203 10.3516 94.4199 9.15625 96.8721 9.15625C99.2627 9.15625 100.854 10.3779 100.889 12.2236H98.5156C98.4629 11.459 97.8213 10.9756 96.8369 10.9756C95.9141 10.9756 95.2988 11.3887 95.2988 12.0127C95.2988 12.4961 95.7207 12.8213 96.5908 13.0234L98.4102 13.4189C100.353 13.8584 101.126 14.6055 101.126 16.0469C101.126 17.9277 99.3945 19.167 96.8633 19.167C94.3145 19.167 92.7148 17.9365 92.583 16.0732H95.0879C95.2109 16.8906 95.8701 17.3477 96.9336 17.3477C97.9531 17.3477 98.5771 16.9521 98.5771 16.3193C98.5771 15.8184 98.2432 15.5547 97.3643 15.3438L95.5801 14.9395C93.7607 14.5264 92.8203 13.5859 92.8203 12.1709ZM103.147 7.16992H105.714V9.32324H107.507V11.2656H105.714V15.9678C105.714 16.7148 106.083 17.0752 106.865 17.0752C107.094 17.0752 107.349 17.0576 107.507 17.0312V18.9297C107.243 18.9824 106.786 19.0352 106.268 19.0352C104.026 19.0352 103.147 18.2793 103.147 16.3896V11.2656H101.838V9.32324H103.147V7.16992Z" fill="#F6BD41"/>
<path d="M14 6H4C3.45 6 3 6.45 3 7C3 7.55 3.45 8 4 8H14C14.55 8 15 7.55 15 7C15 6.45 14.55 6 14 6ZM14 10H4C3.45 10 3 10.45 3 11C3 11.55 3.45 12 4 12H14C14.55 12 15 11.55 15 11C15 10.45 14.55 10 14 10ZM4 16H10C10.55 16 11 15.55 11 15C11 14.45 10.55 14 10 14H4C3.45 14 3 14.45 3 15C3 15.55 3.45 16 4 16ZM19 6C17.9 6 17 6.9 17 8V14.18C16.69 14.07 16.35 14 16 14C14.16 14 12.72 15.64 13.05 17.54C13.26 18.75 14.25 19.74 15.46 19.95C17.36 20.28 19 18.84 19 17V8H21C21.55 8 22 7.55 22 7C22 6.45 21.55 6 21 6H19Z" fill="#F6BD41"/>
</svg>
